<?xml version="1.0" encoding="utf-8"?>
<!-- Generator: Adobe Illustrator 24.0.2, SVG Export Plug-In . SVG Version: 6.00 Build 0)  -->
<svg version="1.1" id="Vrstva_1" xmlns="http://www.w3.org/2000/svg" xmlns:xlink="http://www.w3.org/1999/xlink" x="0px" y="0px"
	 viewBox="0 0 758.8 717" style="enable-background:new 0 0 758.8 717;" xml:space="preserve">
<style type="text/css">
	.st0{fill:none;}
	.st1{opacity:0.12;fill:#606060;enable-background:new    ;}
	.st2{fill:#8AAD9F;}
	.st3{fill:#DEC2A7;}
	.st4{fill:#EACDB0;}
	.st5{fill:#A1BDCC;}
	.st6{fill:#8C9498;}
	.st7{fill:#3A3029;}
	.st8{fill:#FFFFFF;}
	.st9{fill:#514943;}
	.st10{fill:#CAB5A1;}
	.st11{fill:#9E6652;}
	.st12{fill:#59595B;}
	.st13{opacity:0.26;}
	.st14{fill:#6596C1;}
	.st15{fill:#5A8FB7;}
	.st16{fill:#C2969C;}
	.st17{fill:#754C3D;}
	.st18{fill:#BCAC98;}
	.st19{fill:#D3C2A4;}
	.st20{fill:#37454D;}
	.st21{fill:#4F3C22;}
	.st22{fill:#DACAAF;}
	.st23{fill:#F2D263;}
	.st24{fill:#AECCDC;}
	.st25{fill:#B26650;}
	.st26{fill:#2E4661;}
	.st27{fill:#FFFFF1;}
</style>
<g id="background">
	<g>
		<rect x="-91.3" y="-12" class="st0" width="935" height="749"/>
	</g>
</g>
<g id="shadow">
	<path class="st1" d="M707.9,576H110.8c-18.9,0-34.3,10-34.3,22.3l0,0c0,8.5,7.4,15.9,18.2,19.7H42.1c-18.9,0-34.3,10-34.3,22.3l0,0
		c0,12.3,15.5,22.3,34.3,22.3h18.3c-5.1,3.9-8.2,8.9-8.2,14.4v8.9c0,12.3,15.5,22.3,34.3,22.3h588.3c18.9,0,34.3-10,34.3-22.3V677
		c0-12.3-15.5-22.3-34.3-22.3l-40,0.5c3,0,8-1.6,11.3-4.7c5.8-5.5,6.1-13.9,3.2-20.8c-1.8-4.5-4.8-8.1-12.1-9.4l70.7,0.3
		c18.9,0,34.3-10,34.3-22.3l0,0C742.3,586,726.8,576,707.9,576z"/>
</g>
<g id="object">
	<g>
		<g>
			<polygon class="st2" points="362.3,324.2 365.5,370.8 379.1,379.1 390.8,368 374.8,319.9 			"/>
		</g>
		<g>
			<polygon class="st3" points="494,409.9 502.3,418 500.3,427.8 489.3,425.7 486.1,416.9 			"/>
		</g>
		<g>
			<polygon class="st4" points="341.6,279.7 342.9,290.1 338.8,296.9 332.1,295.9 331.2,283.9 340.3,279 			"/>
		</g>
		<g>
			<polygon class="st5" points="273.5,281.8 317,338.1 326.1,294.3 342.9,297.8 333.2,363.8 316.8,376 273.6,345.1 			"/>
		</g>
		<g>
			<g>
				<g>
					<g>
						<polygon class="st6" points="309.4,410.5 311.6,513.8 294.9,647.2 281,647.4 270.8,524.6 250.3,401.9 						"/>
					</g>
					<g>
						<polygon class="st7" points="281,645.6 281.1,653.7 296.3,661.6 303.8,653.4 296.1,645.4 						"/>
					</g>
				</g>
				<g>
					<polygon class="st7" points="233.5,649.5 245.5,660.4 242.5,666.9 220.3,661.7 220.3,649.5 					"/>
				</g>
				<g>
					<polygon class="st6" points="261,451.1 251,551.2 237.8,651 219,650.1 219.7,546.5 208.4,450.5 235,437.2 					"/>
				</g>
			</g>
			<g>
				<path class="st5" d="M222.7,274.3l36.5-7.3c0,0,24.8,17.1,43.6,68.9c19.2,52.8,16.5,133.6,16.5,133.6s-100.3,1.7-116.8,2.1
					l9.6-111.8L222.7,274.3z"/>
			</g>
			<g>
				<g>
					<path class="st4" d="M247.5,274.7c-4.3-0.2-8.7-0.3-13-0.5c-0.3-3.7-0.2-7.4,0-11.2c-3.7-1.1-8-2.9-8.8-6.9
						c-0.3-1.3-0.1-2.6,0-3.9c0.5-5.3,1.1-10.6,1.6-15.9c0.2-1.8,0.4-3.7,1.2-5.3c1.5-2.8,4.5-4.2,7.5-5c7.5-1.9,15.9-0.7,22.1,4.2
						c1.6,1.3,3.2,2.9,4,4.9c1.3,3.1,0.7,6.7,0.1,10c-0.6,3.1-1.1,6.1-1.7,9.2c-0.6,3.5-1.6,7.6-4.7,9.1c-1.6,0.8-3.6,0.7-5,1.9
						C248.1,267.4,248.7,271.6,247.5,274.7z"/>
				</g>
				<g>
					<path class="st7" d="M286.7,219.4c-0.1-3.6-0.8-7.2-1.7-10.5c-1.5-5.6-7.8-7.7-13.2-7.7c-11.7-0.1-23.2-5-34.3,0.1
						c-6.3,2.9-15,4.1-20.7,8c-2.4,1.6-4.2,4-5.6,6.7c-4.8,9.1-4.1,21.2,1.7,29.6c1.3,1.9,2.8,3.6,4.4,5.2c3.3,3.3,7.2,7.5,11.5,8.5
						c-0.1-4-4.3-16.5-1.6-20c4.3-5.6,14.8-4.4,20.5-3.5c6.3,1,12.1,5.3,18.3,5.9c4.5,0.4,10-2.3,13.6-5
						C285.3,232.4,286.9,225.9,286.7,219.4z"/>
				</g>
			</g>
			<g>
				<path class="st8" d="M249.1,274.3l35.6,87.1l13.8,108.1l-51,1.1c0,0,5.9-80.1,3.8-90.6s-6.3-32.2-10.8-56.6
					c-1-5.6-8.7-48.8-8.7-48.5L249.1,274.3z"/>
			</g>
		</g>
		<g>
			<g>
				<polygon class="st2" points="410,285 404.3,283.4 393.4,290.1 362.3,370.8 372,383.3 398.6,346.4 				"/>
			</g>
			<g>
				<g>
					<polygon class="st9" points="457.8,645.4 458.4,651.8 447.5,659.8 441.2,654.1 446.3,646.9 457.2,638.9 					"/>
				</g>
				<g>
					<polygon class="st10" points="457.5,449.4 459.3,468.9 443.1,535.7 458.2,643.2 447.1,647.3 417.8,542.4 413.1,511.9 
						413.3,447.3 					"/>
				</g>
			</g>
			<g>
				<g>
					<polygon class="st10" points="372,471.1 395.4,651.2 406,651.2 407.9,535.7 427.3,454.7 					"/>
				</g>
				<g>
					<polygon class="st9" points="406,649.7 406,656.2 394.5,662.7 388.7,656.2 394.5,649.7 					"/>
				</g>
			</g>
			<g>
				<path class="st2" d="M459.9,394.1c-6-37.6-15.4-74.1-18.8-112.3c-8.9,0-21.3-4.5-30.6-1.8l0,0c0,0-0.2,0-0.4,0.1
					c-3.4,1.1-6.3,3.1-8.6,6.7c0,0,0,0.1-0.1,0.1c-3.3,3.9-7.1,9.9-10.7,19.2c-9.1,23.6-45.4,162.6-46,198.8c0.1,0,0.2,0.1,0.3,0.1
					c7.6,2.6,16,4.5,24.6,5.9l0,0l0,0c25.4,4.1,53.8,4.1,76.9,3.7c3-0.1,35.4,1.1,34.9-1.2C473.6,473.8,466.3,434.1,459.9,394.1z"/>
			</g>
			<g>
				<polygon class="st2" points="439.7,283.5 448.9,289.6 471.2,354.8 495.8,408.3 484.8,418 452.4,369.4 433.3,303.7 				"/>
			</g>
			<g>
				<path class="st11" d="M395.2,222.2c0,0-6.9,6-3.6,28.3c3.2,22.2,1.3,36.8,1.3,36.8s7.1,3.5,12.3,0s7.1-4.2,5.2-13.2
					s-5.8-52.1-5.8-52.1L395.2,222.2z"/>
			</g>
			<g>
				<path class="st11" d="M412.2,229.8c-7.9,2.3-14.1,10.1-14.9,18.9c-4.3-4.3-6.5-10.9-5.7-17.2s4.6-12,9.8-14.9
					c4.9,2.8,8.7,7.7,10.3,13.4L412.2,229.8z"/>
			</g>
			<g>
				<path class="st4" d="M396.2,241.1c4.1-23.1,30.9-19.1,38.6-0.4c4.4,10.6,3.4,31.4-9,34.9c-0.2,2-0.4,5.9-1.9,7.2
					c-1.6,1.5-6.5,0.1-8.5-0.4c-0.5-0.1-1.1-0.3-1.5-0.7c-0.5-0.5-0.6-1.9-0.6-3.5c-1.4-0.1-2.9-0.4-4.4-0.9
					c-6.2-2.2-10.8-8.4-12.6-15.2C394.6,255.3,395,248,396.2,241.1z"/>
			</g>
			<g>
				<path class="st11" d="M401.9,216.5c0,0-2.6,12.5,12.3,16s24.6,16,22,29.2s-13.6,22.9-7.8,26.4s27.2,0,27.2,0s13-46.6-4.5-66.7
					C433.6,201.2,408.4,200.5,401.9,216.5z"/>
			</g>
		</g>
		<g>
			<g>
				<g>
					<path class="st12" d="M351.4,18.9c0-2.3,0-4.5,0-6.8l-2.9-6.4c-0.7-0.9-2.3-0.8-2.9,0.1l-2.4,6.4V19c-2.3,0-6.1,1.9-6.1,4.3
						s1.9,4.3,4.2,4.3h1.9v230.8c0,13-6.4,23.9-15.6,23.6c-7.1-0.2-13.4-6.7-14.4-17.3c-0.2-2.4-2.1-4.2-4.4-4.2h-0.2
						c-2.6,0-4.7,2.4-4.4,5.1c1.8,15.1,13,25.9,23.6,25.9c8.3,0,15.1-4.1,19.1-11.6c4.9-9.2,4.6-19.3,4.6-29.4c0-9.6,0-19.1,0-28.7
						c0-13.4,0-26.7,0-40.1c0-15.2,0-30.5,0-45.7s0-30.4,0-45.6c0-13.2,0-26.5,0-39.7c0-7.7,0-15.5,0-23.2h1.3
						c2.3,0,4.2-1.9,4.2-4.3C356.8,20.9,353.7,18.9,351.4,18.9z"/>
				</g>
				<g class="st13">
					<polygon points="351.4,148.3 343,139 343,123.5 351.4,123.5 					"/>
				</g>
			</g>
			<g>
				<g>
					<path class="st0" d="M410.6,169.9c0.3,0.2,0.7,0.3,1,0.5c0.5-0.2,0.9-0.3,1.4-0.5h-1.5H410.6z"/>
				</g>
				<g>
					<path class="st14" d="M285.5,168.6l1.5-9.9c5.2-34.2,17.4-66.8,35.9-95.2l23.3-36c-56.7,2.6-105.4,38.7-129.2,90.3
						c-7.3,15.8-12.2,33-14.4,51.1c12.3-3.9,26.5-6.2,41.7-6.2C259.2,162.6,273.3,164.8,285.5,168.6z"/>
				</g>
				<g>
					<path class="st14" d="M407.5,148.7l4,21.2h1.5c13-4.6,28.4-7.3,44.9-7.3s32,2.7,45.1,7.2c-2.6-23.2-9.8-44.8-20.5-63.9
						C456,58.8,407.8,27.2,352.8,27.2c-1.6,0-3.2,0-4.8,0.1l18.6,29.2C389.4,86.7,399.8,117.2,407.5,148.7z"/>
				</g>
				<g>
					<path class="st15" d="M287,158.7l-1.5,9.9c0.1,0,0.3,0.1,0.4,0.1c15.7-7.5,37.2-11.8,61-11.8c25,0,47.6,4.8,63.6,13h0.9
						l-4-21.2c-7.6-31.5-18.1-62-40.9-92.1l-18.6-29.2c-0.6,0-1.1,0-1.7,0.1l-23.3,36C304.5,91.9,292.2,124.5,287,158.7z"/>
				</g>
				<g>
					<path class="st8" d="M285.5,168.6l-0.1,0.3c0.1-0.1,0.3-0.1,0.5-0.2C285.8,168.6,285.7,168.6,285.5,168.6z"/>
				</g>
			</g>
		</g>
		<g>
			<polygon class="st4" points="327.4,294.3 323.2,286.5 323.5,274.2 327.4,275.5 328.7,281.8 335.8,288.8 333.7,295.9 			"/>
		</g>
		<g>
			<polygon class="st4" points="327.5,284.2 328.4,276.1 336.1,270 341.3,274.4 340.1,281.1 			"/>
		</g>
		<g>
			<polygon class="st5" points="222.9,274.2 208.1,287.1 171.1,359 190.5,385.4 202.8,381.2 232,311.7 			"/>
		</g>
		<g>
			<polygon class="st4" points="226.8,370.1 231.4,381.1 231.4,422.3 224.4,422.9 214.5,387.4 			"/>
		</g>
		<g>
			<polygon class="st4" points="241.7,363.8 248.9,370.8 257.9,411.1 252.1,414.6 237.2,382.6 226.8,373.5 228.8,363.8 			"/>
		</g>
		<g>
			<path class="st16" d="M184.6,303.1c0,0-5.2,1.8-7.5,6.6c-2.3,4.9-8.3,26-5.3,40.6s4.5,33.3,34.1,39.8
				c14.4,1.6,12.1-11.4,22.7-14.6s20.7-1.4,15.6-18.9c-5-17.6-16.4-19.2-26.2-37.9C208.2,300,197.4,294.1,184.6,303.1z"/>
		</g>
		<g>
			<polygon class="st16" points="181,305.2 158.8,319.3 141.3,326.3 143.2,334.6 161.4,333.2 179.5,324.9 			"/>
		</g>
		<g>
			<polygon class="st16" points="202.8,297.8 221.6,300.6 235.2,291.7 238.5,296.4 226.8,310.3 213.2,314.5 			"/>
		</g>
		<g>
			<g>
				<path class="st17" d="M191.2,262.8c0,0,12.5,5.2,13.8,17.1c0,0,5.9-7.8,1.2-15.7c-4.8-7.9-7.5-10.8-14.7-7.2
					C184.2,260.5,191.2,262.8,191.2,262.8z"/>
			</g>
			<g>
				<path class="st4" d="M203.6,273.4c-4.8-17.1-24.7-11.8-29.2,3c-2.5,8.4-0.2,24,9.4,25.5c0.3,1.5,0.8,4.4,2,5.3
					c1.3,1,4.9-0.5,6.4-1c0.4-0.1,0.8-0.3,1.1-0.7c0.3-0.4,0.3-1.5,0.2-2.7c1.1-0.2,2.1-0.6,3.2-1.1c4.5-2.2,7.5-7.3,8.4-12.5
					C205.9,284,205,278.5,203.6,273.4z"/>
			</g>
			<g>
				<path class="st17" d="M194.7,266.7c-4.4,7.6-13.2,10.1-17.4,17.5c0,0-2.7,4.8,0.1,14.2c0,0-9.3,2.6-15.4-6.5s-0.6-30.9-0.6-30.9
					s9.4-11.2,24.6-10.8c5.2,0.1,10.4,3.1,10.5,9.3C196.7,262.1,195.9,264.6,194.7,266.7z"/>
			</g>
		</g>
		<g>
			<g>
				<path class="st18" d="M170.5,638.3c0,0,0.7,6.5,8.2,6.7c7.5,0.1,10.5,5.5,3.7,5.4s-15,1.3-17.7-4.2
					C161.9,640.7,168.5,634.4,170.5,638.3z"/>
			</g>
			<g>
				<path class="st19" d="M147.5,609.1c0,0-2.7,0.6-4,5.9s-32.3-3.8-43,4s-12.1,14.5-13.4,26.5c-2.8,25.4,39.6,22.6,53.9,16.8
					c14.4-5.8,38.7-8.1,32.2-35.6C172,626.1,147.5,609.1,147.5,609.1z"/>
			</g>
			<g>
				<path class="st20" d="M175.3,624.2l-2.1,1.8c0,0-10.6,3.7-22.6-10.9c-4.7-7.7-3.2-9-3.2-9l2.7,0.6
					C150,606.7,155,623.6,175.3,624.2z"/>
			</g>
			<g>
				<path class="st21" d="M165.2,584.4c0,0,1.1-1.7,4.1-1.8s7.6,5.2,8.7,5.6c1.1,0.4,3.8,1.1,1.1,2.2
					C176.4,591.5,166.6,587.7,165.2,584.4z"/>
			</g>
			<g>
				<path class="st22" d="M154.9,591.5c0,0,4.8-7,11.8-7.1c4.2,0,7.9,1.8,11,4.7c1.6,1.5,2.8,3.2,4.3,4.8c1,1,2.2,1.5,3.2,2.6
					c2.3,2.6,3.4,7.4,2.5,10.9s2.8,13.7-8.1,16.2s-25.2-4.5-28.3-10.6C148.3,606.9,145.6,600.7,154.9,591.5z"/>
			</g>
			<g>
				<path class="st21" d="M156.6,592.3c0,0-3.2-2.1-5.9-0.7c-2.7,1.4-4.8,0.9-4.8,4.1c0.1,3.2-0.4,11.3,3.2,13.8
					c3.6,2.5,2.7-4.1,4.6-6.4C155.5,600.8,158.6,593.3,156.6,592.3z"/>
			</g>
			<g>
				<path class="st19" d="M170.6,640.2c0,0,0.6,9.3,4.9,10.1c4.3,0.7,14.9,5.6,13,8.2s-5-0.1-8.1-0.1s-12.2,1.3-19.8-1.9
					c-7.1-1-10.4,2.4-10.4,2.4L170.6,640.2z"/>
			</g>
			<g>
				<path class="st18" d="M92.1,633.1c-1.1-0.3-6.8-2-7-9.2s4.2-13,10.9-12.9s6.6,6.6,5.2,7.6c-1.4,1-9.6,2-8.4,9.9
					C93.8,631.9,92.1,633.1,92.1,633.1z"/>
			</g>
		</g>
		<g>
			<path class="st23" d="M180.8,305.4c0,0,0.6,9,5.2,9s14.2-4.3,15.6-6.3c1.9-2.8-1.7-8.7-1.7-8.7l3-1.7c0,0,21.4,29.2,10.4,36.8
				s-25.9,12.5-30.5,2.8s-4.8-29.8-4.8-29.8L180.8,305.4z"/>
		</g>
		<g>
			<polygon class="st7" points="232,421.5 237.8,426.4 235.9,429.2 225.5,427.1 224.2,422.2 			"/>
		</g>
		<g>
			<polygon class="st7" points="251.5,413.2 257.3,408.6 262.5,408.3 263.8,412.5 252.7,416.6 			"/>
		</g>
		<g>
			<polygon class="st24" points="171.1,358.6 193.3,355.7 245.9,366.8 245.7,379.8 190.8,385.7 173.8,379.7 			"/>
		</g>
		<g>
			<polygon class="st3" points="245.9,367.8 253.8,370.3 257.9,381.8 252.7,388.1 250.8,379.1 245.7,378.5 			"/>
		</g>
		<g>
			<polygon class="st4" points="141.5,327.2 132.2,327 132.2,329.1 139.3,333.2 138,334.6 139.3,335.3 142.9,333.4 			"/>
		</g>
		<g>
			<polygon class="st4" points="235.5,292.3 237.2,288.8 241.7,288.1 243.7,291.5 242.4,295.7 238.4,296.1 			"/>
		</g>
		<g>
			<g>
				<polygon class="st25" points="544.4,455.6 519.1,450 505.5,425.7 499,431.2 508.8,463.9 530.1,477.8 				"/>
			</g>
			<g>
				<polygon class="st26" points="522.4,569.5 522.4,643.2 532.7,643.2 539.2,598.7 545.1,564.7 				"/>
			</g>
			<g>
				<polygon class="st26" points="545.1,561.9 548.9,593.9 554.1,645.3 564.5,644.6 564.5,605 569.7,564.7 				"/>
			</g>
			<g>
				<path class="st25" d="M540.2,454.5c0,0-11-2.1-15.6,16c-4.5,18.1-16.9,70.9-17.5,98.7s16.2,9.7,36.3,13.2s36.6,3.8,36.6-8.7
					C580.1,561.2,587.2,454.9,540.2,454.5z"/>
			</g>
			<g>
				<g>
					<g>
						<path class="st4" d="M533.9,418.6c9.2-17.4,29.7-6.3,31.1,11c0.8,9.8-5.3,26.2-16.1,25.4c-0.7,1.6-1.9,4.6-3.4,5.3
							c-1.6,0.7-5.3-1.9-6.7-2.8c-0.4-0.3-0.8-0.6-1-1c-0.3-0.6,0-1.7,0.4-3c-1.1-0.5-2.2-1.2-3.3-2c-4.5-3.6-6.5-9.9-6.3-15.9
							C528.9,429.5,531.1,423.8,533.9,418.6z"/>
					</g>
				</g>
				<g>
					<path class="st17" d="M546.7,414.1c0,0,14.7,3.9,14.7,10.5c0,9.9,0.6,16.5,0,22.3l10.4-6.6l6.1-18.4c0,0-1.2-15.1-8.6-17.7
						s-22.6-5.2-22.6-5.2l-11.6,3.9l-8.6-0.7l3,27.6C529.4,429.8,533.2,410.2,546.7,414.1z"/>
				</g>
			</g>
			<g>
				<polygon class="st25" points="551.5,457 569.7,463.9 585.9,507 598.8,538.3 591.7,543.1 571,511.9 				"/>
			</g>
			<g>
				<polygon class="st4" points="591.7,543.1 596.3,550.1 598.8,547.3 606.6,547.3 598.8,538.3 				"/>
			</g>
			<g>
				<polygon class="st6" points="522.4,643.2 516.5,649.5 519.1,653.6 530.8,649.5 530.8,643.2 				"/>
			</g>
			<g>
				<polygon class="st6" points="555.9,645.2 558,654.3 565.1,657.1 569,655 563,644.7 				"/>
			</g>
		</g>
		<g>
			<polygon class="st4" points="505.5,425.7 499,420.8 491.3,422.9 492.6,427.8 499.8,430.6 			"/>
		</g>
		<g>
			<polygon class="st3" points="498.4,430 501,424.5 495.8,421.7 488.5,423.4 490,427.1 			"/>
		</g>
		<g>
			<g>
				<polygon class="st25" points="429.5,496.5 257.2,520.7 241.3,390.7 321.3,327.2 413.7,366.5 				"/>
			</g>
			<g>
				<path class="st26" d="M456.6,356.2c-14.8-6.3-29.6-12.6-44.4-18.8c-23.9-10.2-47.9-20.3-71.8-30.5c-5.8-2.5-11.5-5.1-17.4-7.4
					c-3.7-1.4-7.2-0.8-10.3,1.7c-2,1.6-3.9,3.2-5.9,4.9c-18.8,15.6-37.7,31.3-56.5,46.9c-15.3,12.7-30.8,25.1-45.9,38.1
					c-0.3,0.2-0.5,0.4-0.8,0.6c-3.8,3.2-4.6,9.4-1.6,13.5s8.7,4.9,12.6,1.7c12.4-10.3,24.8-20.6,37.2-30.9
					c19.7-16.3,39.3-32.6,59-49c3.2-2.6,6.4-5.3,9.5-7.9c13.4,5.7,26.8,11.4,40.3,17.1c24.1,10.2,48.3,20.5,72.4,30.7
					c5.5,2.3,11,4.7,16.6,7c4.5,1.9,9.8-0.3,11.8-5.1C463.2,364.1,461.1,358.1,456.6,356.2z"/>
			</g>
			<g>
				<polygon class="st27" points="323.3,507.5 281.3,513.3 270.7,426.5 312.7,420.6 				"/>
			</g>
			<g>
				<g>
					<polygon class="st27" points="366.5,434.4 343.6,437.6 341.1,416.7 363.9,413.5 					"/>
				</g>
				<g>
					<polygon class="st27" points="396.4,430.2 373.5,433.4 371,412.5 393.9,409.3 					"/>
				</g>
				<g>
					<polygon class="st27" points="370,463 347.1,466.2 344.6,445.3 367.4,442.1 					"/>
				</g>
				<g>
					<polygon class="st27" points="399.9,458.8 377,462 374.5,441.1 397.3,437.9 					"/>
				</g>
			</g>
		</g>
		<g>
			<polygon class="st4" points="376.1,321.9 372.1,315.7 361.6,314.5 355.7,323.9 354.5,332.7 363.3,334.6 372.5,321.6 			"/>
		</g>
	</g>
</g>
</svg>
